<svg width="38" height="25" viewBox="0 0 38 25" fill="none" xmlns="http://www.w3.org/2000/svg">
<path d="M1.37203 8H23.6189C24.3751 8 24.9909 8.60224 24.9909 9.34175V23.6582C24.9909 24.3977 24.3751 25 23.6189 25H1.37203C0.61583 25.0044 0 24.4022 0 23.6627V9.34175C0 8.60224 0.61583 8 1.37203 8Z" fill="#B22234"/>
<path d="M0.00905633 9.20891H24.9909C24.9955 9.25319 25 9.29747 25 9.34618V10.6481H0V9.34175C0 9.29747 0.00452816 9.25319 0.00905633 9.20891ZM24.9955 11.8393V13.274H0V11.8393H24.9955ZM24.9955 14.4696V15.9044H0V14.4696H24.9955ZM24.9955 17.1V18.5348H0V17.1H24.9955ZM24.9955 19.7304V21.1651H0V19.7304H24.9955ZM24.9955 22.3608V23.6582C24.9955 23.7025 24.9909 23.7512 24.9864 23.7955H0.00905633C0.00452816 23.7556 0 23.7069 0 23.6627V22.3652H24.9955V22.3608Z" fill="white"/>
<path d="M9.41858 8V17.1576H0V9.34175C0 8.60224 0.61583 8 1.37203 8H9.41858Z" fill="#3C3B6E"/>
<path d="M0.556971 9.26648L0.869414 10.2185L0.0452881 9.62959H1.06865L0.239999 10.2185L0.556971 9.26648Z" fill="white"/>
<path d="M0.556971 11.1086L0.869414 12.0607L0.0452881 11.4717H1.06865L0.239999 12.0607L0.556971 11.1086Z" fill="white"/>
<path d="M0.556971 12.9508L0.869414 13.9028L0.0452881 13.3139H1.06865L0.239999 13.9028L0.556971 12.9508Z" fill="white"/>
<path d="M0.556971 14.7929L0.869414 15.745L0.0452881 15.156H1.06865L0.239999 15.745L0.556971 14.7929Z" fill="white"/>
<path d="M1.66183 8.3454L1.9788 9.29747L1.15015 8.70851H2.17804L1.34486 9.29747L1.66183 8.3454Z" fill="white"/>
<path d="M1.66183 10.1875L1.9788 11.1396L1.15015 10.5507H2.17804L1.34486 11.1396L1.66183 10.1875Z" fill="white"/>
<path d="M1.66183 12.0297L1.9788 12.9818L1.15015 12.3928H2.17804L1.34486 12.9818L1.66183 12.0297Z" fill="white"/>
<path d="M1.66183 13.8718L1.9788 14.8239L1.15015 14.235H2.17804L1.34486 14.8239L1.66183 13.8718Z" fill="white"/>
<path d="M1.66183 15.714L1.9788 16.666L1.15015 16.0771H2.17804L1.34486 16.666L1.66183 15.714Z" fill="white"/>
<path d="M2.7712 9.26648L3.08818 10.2185L2.25952 9.62959H3.28289L2.45423 10.2185L2.7712 9.26648Z" fill="white"/>
<path d="M2.7712 11.1086L3.08818 12.0607L2.25952 11.4717H3.28289L2.45423 12.0607L2.7712 11.1086Z" fill="white"/>
<path d="M2.7712 12.9508L3.08818 13.9028L2.25952 13.3139H3.28289L2.45423 13.9028L2.7712 12.9508Z" fill="white"/>
<path d="M2.7712 14.7929L3.08818 15.745L2.25952 15.156H3.28289L2.45423 15.745L2.7712 14.7929Z" fill="white"/>
<path d="M3.88064 8.3454L4.19308 9.29747L3.36896 8.70851H4.39232L3.56367 9.29747L3.88064 8.3454Z" fill="white"/>
<path d="M3.88064 10.1875L4.19308 11.1396L3.36896 10.5507H4.39232L3.56367 11.1396L3.88064 10.1875Z" fill="white"/>
<path d="M3.88064 12.0297L4.19308 12.9818L3.36896 12.3928H4.39232L3.56367 12.9818L3.88064 12.0297Z" fill="white"/>
<path d="M3.88064 13.8718L4.19308 14.8239L3.36896 14.235H4.39232L3.56367 14.8239L3.88064 13.8718Z" fill="white"/>
<path d="M3.88064 15.714L4.19308 16.666L3.36896 16.0771H4.39232L3.56367 16.666L3.88064 15.714Z" fill="white"/>
<path d="M4.9855 9.26648L5.30247 10.2185L4.47382 9.62959H5.49718L4.66853 10.2185L4.9855 9.26648Z" fill="white"/>
<path d="M4.9855 11.1086L5.30247 12.0607L4.47382 11.4717H5.49718L4.66853 12.0607L4.9855 11.1086Z" fill="white"/>
<path d="M4.9855 12.9508L5.30247 13.9028L4.47382 13.3139H5.49718L4.66853 13.9028L4.9855 12.9508Z" fill="white"/>
<path d="M4.9855 14.7929L5.30247 15.745L4.47382 15.156H5.49718L4.66853 15.745L4.9855 14.7929Z" fill="white"/>
<path d="M6.09493 8.3454L6.41191 9.29747L5.58325 8.70851H6.60662L5.77796 9.29747L6.09493 8.3454Z" fill="white"/>
<path d="M6.09493 10.1875L6.41191 11.1396L5.58325 10.5507H6.60662L5.77796 11.1396L6.09493 10.1875Z" fill="white"/>
<path d="M6.09493 12.0297L6.41191 12.9818L5.58325 12.3928H6.60662L5.77796 12.9818L6.09493 12.0297Z" fill="white"/>
<path d="M6.09493 13.8718L6.41191 14.8239L5.58325 14.235H6.60662L5.77796 14.8239L6.09493 13.8718Z" fill="white"/>
<path d="M6.09493 15.714L6.41191 16.666L5.58325 16.0771H6.60662L5.77796 16.666L6.09493 15.714Z" fill="white"/>
<path d="M7.19979 9.26648L7.51676 10.2185L6.68811 9.62959H7.71148L6.88735 10.2185L7.19979 9.26648Z" fill="white"/>
<path d="M7.19979 11.1086L7.51676 12.0607L6.68811 11.4717H7.71148L6.88735 12.0607L7.19979 11.1086Z" fill="white"/>
<path d="M7.19979 12.9508L7.51676 13.9028L6.68811 13.3139H7.71148L6.88735 13.9028L7.19979 12.9508Z" fill="white"/>
<path d="M7.19979 14.7929L7.51676 15.745L6.68811 15.156H7.71148L6.88735 15.745L7.19979 14.7929Z" fill="white"/>
<path d="M8.30917 8.3454L8.62614 9.29747L7.79749 8.70851H8.82085L7.9922 9.29747L8.30917 8.3454Z" fill="white"/>
<path d="M8.30917 10.1875L8.62614 11.1396L7.79749 10.5507H8.82085L7.9922 11.1396L8.30917 10.1875Z" fill="white"/>
<path d="M8.30917 12.0297L8.62614 12.9818L7.79749 12.3928H8.82085L7.9922 12.9818L8.30917 12.0297Z" fill="white"/>
<path d="M8.30917 13.8718L8.62614 14.8239L7.79749 14.235H8.82085L7.9922 14.8239L8.30917 13.8718Z" fill="white"/>
<path d="M8.30917 15.714L8.62614 16.666L7.79749 16.0771H8.82085L7.9922 16.666L8.30917 15.714Z" fill="white"/>
<path d="M14.3723 0H36.6232C37.3795 0 37.9955 0.602083 37.9955 1.34141V15.6542C37.9955 16.3935 37.3795 16.9956 36.6232 16.9956H14.3723C13.6159 17 13 16.3979 13 15.6586V1.34141C13 0.602083 13.6159 0 14.3723 0Z" fill="#009B3A"/>
<path d="M14.9203 8.5L25.5 15.1008L36.0797 8.5L25.5 1.89922L14.9203 8.5Z" fill="#FEDF00"/>
<path d="M25.5 4.13933C27.9638 4.13933 29.961 6.09167 29.961 8.50001C29.961 10.9083 27.9638 12.8607 25.5 12.8607C23.0362 12.8607 21.0389 10.9083 21.0389 8.50001C21.0389 6.09167 23.0362 4.13933 25.5 4.13933Z" fill="#002776"/>
<path d="M21.4194 6.73803C21.9175 6.66719 22.4293 6.63177 22.9502 6.63177C25.6041 6.63177 28.0317 7.56589 29.9157 9.11094C29.884 9.35 29.8297 9.58021 29.7572 9.80157C27.9547 8.21667 25.5679 7.25157 22.9502 7.25157C22.3478 7.25157 21.7545 7.30469 21.1793 7.40209C21.2427 7.17188 21.3242 6.95053 21.4194 6.73803Z" fill="white"/>
<path fill-rule="evenodd" clip-rule="evenodd" d="M21.6866 7.14975C21.75 7.14089 21.7908 7.07891 21.7817 7.00808C21.7726 6.93725 21.7138 6.88412 21.6549 6.89298C21.596 6.90183 21.5507 6.96381 21.5598 7.03464C21.5688 7.10548 21.6232 7.15417 21.6866 7.14975ZM21.6957 7.22501C21.7998 7.21173 21.8768 7.1099 21.8587 6.9948C21.8451 6.87969 21.75 6.80001 21.6413 6.81329C21.5371 6.82657 21.4647 6.92839 21.4783 7.0435C21.4964 7.15417 21.5915 7.23829 21.6957 7.22501Z" fill="#009B3A"/>
<path fill-rule="evenodd" clip-rule="evenodd" d="M22.1033 6.95052L22.2663 6.94167C22.298 6.93724 22.3207 6.91511 22.3161 6.88412C22.3161 6.85313 22.289 6.83099 22.2572 6.83542L22.0942 6.8487L22.1033 6.95052ZM22.0399 7.18959L22.1168 7.18516L22.1078 7.03021L22.2754 7.01693C22.3478 7.0125 22.4067 6.95053 22.3976 6.87969C22.3931 6.80886 22.3297 6.75573 22.2572 6.76016L22.0172 6.77787L22.0399 7.18959Z" fill="#009B3A"/>
<path d="M22.4022 7.16303C22.3976 7.10547 22.3886 6.97266 22.298 6.98152L22.1802 6.99037C22.3116 6.98152 22.3206 7.1099 22.3297 7.17188L22.4022 7.16303Z" fill="#009B3A"/>
<path fill-rule="evenodd" clip-rule="evenodd" d="M22.6558 7.07448H22.769C22.8324 7.07448 22.8823 7.02136 22.8823 6.95938V6.92396C22.8823 6.86198 22.8279 6.81328 22.7645 6.81328L22.6467 6.81771L22.6558 7.07448ZM22.5788 7.15417L22.7781 7.14974C22.8777 7.14532 22.9592 7.06563 22.9592 6.96823V6.91068C22.9592 6.81328 22.8732 6.7336 22.7736 6.7336L22.5743 6.73802L22.5788 7.15417Z" fill="#009B3A"/>
<path d="M23.1177 7.14974L23.5027 7.16302V7.08776L23.1947 7.07448L23.1993 6.96823L23.4393 6.97709L23.4438 6.90625L23.1993 6.8974L23.2038 6.81328L23.4936 6.82657L23.4982 6.74688L23.1359 6.7336L23.1177 7.14974Z" fill="#009B3A"/>
<path d="M23.6567 7.17188L23.7291 7.18073L23.7563 6.89297L23.8152 7.18516L23.8831 7.19402L23.9918 6.91511L23.9646 7.19844L24.0371 7.20287L24.0779 6.79115L23.9692 6.7823L23.8605 7.05678L23.8016 6.76902L23.6974 6.76016L23.6567 7.17188Z" fill="#009B3A"/>
<path d="M24.5399 7.26927L24.8524 7.3224L24.8659 7.25156L24.6214 7.21172L24.6395 7.11875L24.8342 7.14974L24.8478 7.08334L24.6531 7.04792L24.6621 6.98151L24.8976 7.02136L24.9112 6.95052L24.6033 6.90182L24.5399 7.26927Z" fill="#009B3A"/>
<path fill-rule="evenodd" clip-rule="evenodd" d="M25.4819 7.22057L25.6404 7.26041C25.6676 7.26484 25.6993 7.25156 25.7083 7.22057C25.7129 7.194 25.6993 7.16302 25.6676 7.15416L25.5091 7.11432L25.4819 7.22057ZM25.346 7.42421L25.423 7.44192L25.4638 7.2914L25.6268 7.33124C25.6993 7.34895 25.7717 7.30911 25.7898 7.23828C25.808 7.16744 25.7672 7.09661 25.6947 7.0789L25.4592 7.01692L25.346 7.42421Z" fill="#009B3A"/>
<path fill-rule="evenodd" clip-rule="evenodd" d="M26.0117 7.36224L26.1657 7.41094C26.1929 7.41979 26.2246 7.40651 26.2337 7.37552C26.2427 7.34896 26.2291 7.31797 26.1974 7.30912L26.0435 7.26042L26.0117 7.36224ZM25.8668 7.56146L25.9438 7.5836L25.9936 7.4375L26.1567 7.4862C26.2246 7.50834 26.3016 7.46849 26.3242 7.40208C26.3469 7.33568 26.3061 7.26042 26.2382 7.23828L26.0072 7.16745L25.8668 7.56146Z" fill="#009B3A"/>
<path d="M26.2111 7.66771C26.2292 7.61016 26.2699 7.4862 26.1839 7.45964L26.0752 7.42422C26.202 7.46407 26.1612 7.58803 26.1431 7.64558L26.2111 7.66771Z" fill="#009B3A"/>
<path fill-rule="evenodd" clip-rule="evenodd" d="M26.5869 7.71641C26.6458 7.73854 26.7138 7.6987 26.7364 7.63229C26.7636 7.56588 26.7364 7.49062 26.6775 7.47292C26.6187 7.45078 26.5507 7.49062 26.5281 7.55703C26.5009 7.62344 26.5281 7.69427 26.5869 7.71641ZM26.5598 7.78724C26.6594 7.82266 26.7726 7.7651 26.8134 7.65885C26.8542 7.5526 26.8089 7.43307 26.7092 7.39765C26.6096 7.36224 26.4964 7.41979 26.4556 7.52604C26.4148 7.63672 26.4601 7.75182 26.5598 7.78724Z" fill="#009B3A"/>
<path fill-rule="evenodd" clip-rule="evenodd" d="M27.0897 7.91563C27.1486 7.93776 27.2165 7.90677 27.2482 7.84036L27.3207 7.87135C27.2754 7.9776 27.1576 8.0263 27.0625 7.98646C26.9629 7.94662 26.9221 7.82708 26.9719 7.72083C27.0172 7.61458 27.135 7.56146 27.2301 7.60573C27.3071 7.63672 27.3479 7.71641 27.3388 7.80052L27.2618 7.7651C27.2573 7.72526 27.2346 7.68984 27.1984 7.67656C27.144 7.65 27.0716 7.68542 27.0444 7.75182C27.0127 7.81823 27.0308 7.88906 27.0897 7.91563Z" fill="#009B3A"/>
<path d="M27.1712 7.80937L27.3207 7.87135L27.2935 7.92448L27.1486 7.8625L27.1712 7.80937Z" fill="#009B3A"/>
<path d="M27.2618 7.84479L27.3206 7.87135L27.2346 8.06171L27.1757 8.03515L27.2618 7.84479Z" fill="#009B3A"/>
<path fill-rule="evenodd" clip-rule="evenodd" d="M27.5516 7.95105L27.6966 8.02188C27.7237 8.03516 27.7554 8.02631 27.769 7.99975C27.7826 7.97318 27.7736 7.94219 27.7418 7.92891L27.5969 7.85808L27.5516 7.95105ZM27.375 8.1237L27.4475 8.15912L27.5154 8.02188L27.6649 8.09714C27.7328 8.12813 27.8098 8.10157 27.846 8.03959C27.8777 7.97318 27.8505 7.89792 27.7871 7.86251L27.5697 7.75626L27.375 8.1237Z" fill="#009B3A"/>
<path d="M27.7011 8.28308C27.7283 8.22995 27.7871 8.11485 27.7056 8.075L27.6014 8.02631C27.7192 8.08386 27.6603 8.20339 27.6331 8.25209L27.7011 8.28308Z" fill="#009B3A"/>
<path d="M27.8596 8.36276L28.1902 8.5487L28.231 8.48229L27.9593 8.33177L28.0136 8.2388L28.2265 8.35391L28.2582 8.29193L28.0498 8.17682L28.0906 8.10599L28.3442 8.24323L28.385 8.17682L28.068 8.00417L27.8596 8.36276Z" fill="#009B3A"/>
<path d="M28.4801 8.56641C28.4574 8.60183 28.4801 8.64167 28.5299 8.67266C28.5797 8.70365 28.616 8.70365 28.6295 8.68151C28.6748 8.61068 28.4076 8.50443 28.4891 8.38047C28.5616 8.27422 28.6839 8.35834 28.7292 8.3849C28.7745 8.41146 28.8469 8.48672 28.7926 8.57084L28.7156 8.52214C28.7382 8.48229 28.7111 8.44688 28.6703 8.42474C28.6295 8.40261 28.5978 8.38933 28.5752 8.42474C28.5344 8.48229 28.7971 8.59297 28.7201 8.71693C28.6613 8.8099 28.5571 8.77005 28.4846 8.72578C28.4257 8.69037 28.3397 8.60183 28.394 8.51328L28.4801 8.56641Z" fill="#009B3A"/>
<path d="M28.933 8.86302C28.9104 8.89843 28.9285 8.93828 28.9783 8.96927C29.0281 9.00468 29.0643 9.00468 29.0779 8.98255C29.1277 8.91171 28.8651 8.79661 28.9556 8.67708C29.0326 8.57526 29.1504 8.6638 29.1957 8.69479C29.241 8.72578 29.3089 8.80546 29.25 8.88515L29.173 8.83203C29.2002 8.79661 29.173 8.76119 29.1368 8.7302C29.1006 8.70364 29.0689 8.69036 29.0417 8.72578C28.9964 8.7789 29.2546 8.90286 29.1685 9.02239C29.1051 9.11093 29.0009 9.06666 28.9375 9.01796C28.8787 8.97812 28.7971 8.88515 28.8605 8.80104L28.933 8.86302Z" fill="#009B3A"/>
<path fill-rule="evenodd" clip-rule="evenodd" d="M29.413 9.27916C29.4628 9.31458 29.5398 9.3013 29.5851 9.24375C29.6304 9.1862 29.6304 9.11094 29.5806 9.07552C29.5353 9.03567 29.4538 9.05338 29.413 9.11093C29.3632 9.16406 29.3632 9.24375 29.413 9.27916ZM29.3632 9.34114C29.4447 9.40755 29.5715 9.38541 29.644 9.29687C29.7165 9.20833 29.7074 9.08437 29.6259 9.01797C29.5444 8.95156 29.4176 8.9737 29.3451 9.06224C29.2726 9.15078 29.2817 9.27474 29.3632 9.34114Z" fill="#009B3A"/>
<path d="M21.8587 7.53047L21.7998 7.70755L21.8904 7.73854L21.8587 7.53047Z" fill="white"/>
<path d="M21.8587 7.53047L21.9175 7.70755L21.827 7.73854L21.8587 7.53047Z" fill="white"/>
<path d="M22.0398 7.65886H21.8496V7.75183L22.0398 7.65886Z" fill="white"/>
<path d="M22.0398 7.65886L21.8858 7.76954L21.827 7.69428L22.0398 7.65886Z" fill="white"/>
<path d="M21.6776 7.65886L21.8315 7.76954L21.8859 7.69428L21.6776 7.65886Z" fill="white"/>
<path d="M21.6776 7.65886H21.8678V7.75183L21.6776 7.65886Z" fill="white"/>
<path d="M21.9719 7.86693L21.913 7.68985L21.8224 7.72084L21.9719 7.86693Z" fill="white"/>
<path d="M21.9719 7.86692L21.8179 7.76067L21.8723 7.68098L21.9719 7.86692Z" fill="white"/>
<path d="M21.7455 7.86692L21.8995 7.76067L21.8451 7.68098L21.7455 7.86692Z" fill="white"/>
<path d="M21.7455 7.86693L21.8044 7.68985L21.8949 7.72084L21.7455 7.86693Z" fill="white"/>
<path d="M22.2527 9.36328L22.1938 9.54036L22.2844 9.57135L22.2527 9.36328Z" fill="white"/>
<path d="M22.2527 9.36328L22.3116 9.54036L22.221 9.57135L22.2527 9.36328Z" fill="white"/>
<path d="M22.4339 9.49167H22.2437V9.58464L22.4339 9.49167Z" fill="white"/>
<path d="M22.4339 9.49167L22.2799 9.60235L22.2255 9.52709L22.4339 9.49167Z" fill="white"/>
<path d="M22.0715 9.49167L22.2255 9.60235L22.2844 9.52709L22.0715 9.49167Z" fill="white"/>
<path d="M22.0715 9.49167H22.2618V9.58464L22.0715 9.49167Z" fill="white"/>
<path d="M22.3659 9.69974L22.3071 9.52266L22.2165 9.55365L22.3659 9.69974Z" fill="white"/>
<path d="M22.366 9.69975L22.212 9.5935L22.2663 9.51381L22.366 9.69975Z" fill="white"/>
<path d="M22.1395 9.69975L22.2935 9.5935L22.2391 9.51381L22.1395 9.69975Z" fill="white"/>
<path d="M22.1395 9.69974L22.1983 9.52266L22.2889 9.55365L22.1395 9.69974Z" fill="white"/>
<path d="M21.7047 9.78828L21.6594 9.93438L21.7319 9.95651L21.7047 9.78828Z" fill="white"/>
<path d="M21.7047 9.78828L21.7545 9.93438L21.6821 9.95651L21.7047 9.78828Z" fill="white"/>
<path d="M21.8587 9.89453H21.7002V9.96979L21.8587 9.89453Z" fill="white"/>
<path d="M21.8587 9.89453L21.7274 9.98307L21.6821 9.92109L21.8587 9.89453Z" fill="white"/>
<path d="M21.5552 9.89453L21.6866 9.98307L21.7319 9.92109L21.5552 9.89453Z" fill="white"/>
<path d="M21.5552 9.89453H21.7138V9.96979L21.5552 9.89453Z" fill="white"/>
<path d="M21.7998 10.0672L21.75 9.91667L21.673 9.94323L21.7998 10.0672Z" fill="white"/>
<path d="M21.7998 10.0672L21.673 9.97423L21.7183 9.91225L21.7998 10.0672Z" fill="white"/>
<path d="M21.6141 10.0672L21.7409 9.97423L21.6957 9.91225L21.6141 10.0672Z" fill="white"/>
<path d="M21.6141 10.0672L21.664 9.91667L21.7364 9.94323L21.6141 10.0672Z" fill="white"/>
<path d="M22.692 9.19505L22.6603 9.27917L22.7056 9.29245L22.692 9.19505Z" fill="white"/>
<path d="M22.692 9.19505L22.7192 9.27917L22.6739 9.29245L22.692 9.19505Z" fill="white"/>
<path d="M22.7781 9.25703H22.6875V9.30131L22.7781 9.25703Z" fill="white"/>
<path d="M22.7781 9.25703L22.7011 9.31016L22.6785 9.27474L22.7781 9.25703Z" fill="white"/>
<path d="M22.6014 9.25703L22.6784 9.31016L22.7056 9.27474L22.6014 9.25703Z" fill="white"/>
<path d="M22.6014 9.25703H22.6965V9.30131L22.6014 9.25703Z" fill="white"/>
<path d="M22.7418 9.35442L22.7147 9.27031L22.6739 9.28359L22.7418 9.35442Z" fill="white"/>
<path d="M22.7418 9.35443L22.6694 9.3013L22.6965 9.26588L22.7418 9.35443Z" fill="white"/>
<path d="M22.6377 9.35443L22.7102 9.3013L22.683 9.26588L22.6377 9.35443Z" fill="white"/>
<path d="M22.6377 9.35442L22.6649 9.27031L22.7056 9.28359L22.6377 9.35442Z" fill="white"/>
<path d="M23.1812 9.82812L23.1313 9.97422L23.2083 10.0008L23.1812 9.82812Z" fill="white"/>
<path d="M23.1812 9.82812L23.231 9.97422L23.154 10.0008L23.1812 9.82812Z" fill="white"/>
<path d="M23.3352 9.93437H23.1721V10.0141L23.3352 9.93437Z" fill="white"/>
<path d="M23.3351 9.93437L23.2038 10.0273L23.1585 9.96536L23.3351 9.93437Z" fill="white"/>
<path d="M23.0317 9.93437L23.1585 10.0273L23.2038 9.96536L23.0317 9.93437Z" fill="white"/>
<path d="M23.0317 9.93437H23.1902V10.0141L23.0317 9.93437Z" fill="white"/>
<path d="M23.2763 10.1115L23.2265 9.96094L23.1495 9.98307L23.2763 10.1115Z" fill="white"/>
<path d="M23.2763 10.1115L23.145 10.0185L23.1948 9.95651L23.2763 10.1115Z" fill="white"/>
<path d="M23.0906 10.1115L23.2174 10.0185L23.1721 9.95651L23.0906 10.1115Z" fill="white"/>
<path d="M23.0906 10.1115L23.1359 9.96094L23.2129 9.98307L23.0906 10.1115Z" fill="white"/>
<path d="M23.0498 10.293L23.009 10.4125L23.0679 10.4302L23.0498 10.293Z" fill="white"/>
<path d="M23.0498 10.293L23.086 10.4125L23.0272 10.4302L23.0498 10.293Z" fill="white"/>
<path d="M23.1676 10.3771H23.0408V10.4391L23.1676 10.3771Z" fill="white"/>
<path d="M23.1676 10.3771L23.0679 10.4524L23.0272 10.3992L23.1676 10.3771Z" fill="white"/>
<path d="M22.9276 10.3771L23.0317 10.4524L23.0679 10.3992L22.9276 10.3771Z" fill="white"/>
<path d="M22.9276 10.3771H23.0544V10.4391L22.9276 10.3771Z" fill="white"/>
<path d="M23.1223 10.5187L23.0815 10.3992L23.0226 10.4169L23.1223 10.5187Z" fill="white"/>
<path d="M23.1223 10.5187L23.0181 10.4435L23.0589 10.3948L23.1223 10.5187Z" fill="white"/>
<path d="M22.9728 10.5187L23.077 10.4435L23.0362 10.3948L22.9728 10.5187Z" fill="white"/>
<path d="M22.9728 10.5187L23.0136 10.3992L23.0725 10.4169L22.9728 10.5187Z" fill="white"/>
<path d="M26.8858 6.95938L26.827 7.13646L26.9175 7.16745L26.8858 6.95938Z" fill="white"/>
<path d="M26.8858 6.95938L26.9402 7.13646L26.8496 7.16745L26.8858 6.95938Z" fill="white"/>
<path d="M27.067 7.09219H26.8723V7.18516L27.067 7.09219Z" fill="white"/>
<path d="M27.067 7.09219L26.9085 7.19844L26.8542 7.12318L27.067 7.09219Z" fill="white"/>
<path d="M26.7002 7.09219L26.8587 7.19844L26.9131 7.12318L26.7002 7.09219Z" fill="white"/>
<path d="M26.7002 7.09219H26.8949V7.18516L26.7002 7.09219Z" fill="white"/>
<path d="M26.9945 7.30027L26.9357 7.12318L26.8451 7.14975L26.9945 7.30027Z" fill="white"/>
<path d="M26.9946 7.30026L26.8406 7.18958L26.8995 7.11432L26.9946 7.30026Z" fill="white"/>
<path d="M26.7726 7.30026L26.9266 7.18958L26.8678 7.11432L26.7726 7.30026Z" fill="white"/>
<path d="M26.7726 7.30027L26.8315 7.12318L26.9221 7.14975L26.7726 7.30027Z" fill="white"/>
<path d="M28.625 9.84584L28.5661 10.0229L28.6567 10.0495L28.625 9.84584Z" fill="white"/>
<path d="M28.625 9.84584L28.6839 10.0229L28.5933 10.0495L28.625 9.84584Z" fill="white"/>
<path d="M28.8062 9.97421H28.616V10.0672L28.8062 9.97421Z" fill="white"/>
<path d="M28.8062 9.97421L28.6522 10.0805L28.5978 10.0096L28.8062 9.97421Z" fill="white"/>
<path d="M28.4438 9.97421L28.5978 10.0805L28.6522 10.0096L28.4438 9.97421Z" fill="white"/>
<path d="M28.4438 9.97421H28.6341V10.0672L28.4438 9.97421Z" fill="white"/>
<path d="M28.7382 10.1823L28.6793 10.0052L28.5887 10.0318L28.7382 10.1823Z" fill="white"/>
<path d="M28.7382 10.1823L28.5842 10.0716L28.6386 9.99635L28.7382 10.1823Z" fill="white"/>
<path d="M28.5118 10.1823L28.6658 10.0716L28.6114 9.99635L28.5118 10.1823Z" fill="white"/>
<path d="M28.5118 10.1823L28.5707 10.0052L28.6612 10.0318L28.5118 10.1823Z" fill="white"/>
<path d="M29.2455 9.94766L29.2047 10.0672L29.2636 10.0849L29.2455 9.94766Z" fill="white"/>
<path d="M29.2455 9.94766L29.2817 10.0672L29.2228 10.0849L29.2455 9.94766Z" fill="white"/>
<path d="M29.3632 10.0318H29.2364V10.0937L29.3632 10.0318Z" fill="white"/>
<path d="M29.3632 10.0318L29.2636 10.107L29.2228 10.0583L29.3632 10.0318Z" fill="white"/>
<path d="M29.1232 10.0318L29.2273 10.107L29.2636 10.0583L29.1232 10.0318Z" fill="white"/>
<path d="M29.1232 10.0318H29.25V10.0937L29.1232 10.0318Z" fill="white"/>
<path d="M29.318 10.1734L29.2817 10.0539L29.2183 10.0716L29.318 10.1734Z" fill="white"/>
<path d="M29.318 10.1734L29.2183 10.0982L29.2546 10.0495L29.318 10.1734Z" fill="white"/>
<path d="M29.1685 10.1734L29.2726 10.0982L29.2364 10.0495L29.1685 10.1734Z" fill="white"/>
<path d="M29.1685 10.1734L29.2092 10.0539L29.2681 10.0716L29.1685 10.1734Z" fill="white"/>
<path d="M28.8062 10.262L28.7563 10.4081L28.8333 10.4346L28.8062 10.262Z" fill="white"/>
<path d="M28.8062 10.262L28.856 10.4081L28.779 10.4346L28.8062 10.262Z" fill="white"/>
<path d="M28.9602 10.3682H28.7971V10.4435L28.9602 10.3682Z" fill="white"/>
<path d="M28.9601 10.3682L28.8288 10.4612L28.7835 10.3948L28.9601 10.3682Z" fill="white"/>
<path d="M28.6567 10.3682L28.7835 10.4612L28.8333 10.3948L28.6567 10.3682Z" fill="white"/>
<path d="M28.6567 10.3682H28.8152V10.4435L28.6567 10.3682Z" fill="white"/>
<path d="M28.9013 10.5409L28.8515 10.3948L28.7745 10.4169L28.9013 10.5409Z" fill="white"/>
<path d="M28.9013 10.5409L28.7745 10.4523L28.8198 10.3859L28.9013 10.5409Z" fill="white"/>
<path d="M28.7156 10.5409L28.8424 10.4523L28.7971 10.3859L28.7156 10.5409Z" fill="white"/>
<path d="M28.7156 10.5409L28.7654 10.3948L28.8379 10.4169L28.7156 10.5409Z" fill="white"/>
<path d="M27.7328 11.174L27.683 11.3201L27.76 11.3466L27.7328 11.174Z" fill="white"/>
<path d="M27.7328 11.174L27.7826 11.3201L27.7056 11.3466L27.7328 11.174Z" fill="white"/>
<path d="M27.8868 11.2802H27.7238V11.3599L27.8868 11.2802Z" fill="white"/>
<path d="M27.8868 11.2802L27.7554 11.3732L27.7101 11.3112L27.8868 11.2802Z" fill="white"/>
<path d="M27.5833 11.2802L27.7101 11.3732L27.7554 11.3112L27.5833 11.2802Z" fill="white"/>
<path d="M27.5833 11.2802H27.7418V11.3599L27.5833 11.2802Z" fill="white"/>
<path d="M27.8279 11.4573L27.7781 11.3068L27.7011 11.3333L27.8279 11.4573Z" fill="white"/>
<path d="M27.8279 11.4573L27.6965 11.3643L27.7464 11.3023L27.8279 11.4573Z" fill="white"/>
<path d="M27.6422 11.4573L27.769 11.3643L27.7237 11.3023L27.6422 11.4573Z" fill="white"/>
<path d="M27.6422 11.4573L27.6875 11.3068L27.7645 11.3333L27.6422 11.4573Z" fill="white"/>
<path d="M27.7283 11.6432L27.6875 11.7628L27.7464 11.7805L27.7283 11.6432Z" fill="white"/>
<path d="M27.7283 11.6432L27.7645 11.7628L27.7056 11.7805L27.7283 11.6432Z" fill="white"/>
<path d="M27.846 11.7318H27.7192V11.7937L27.846 11.7318Z" fill="white"/>
<path d="M27.846 11.7318L27.7464 11.8026L27.7056 11.7539L27.846 11.7318Z" fill="white"/>
<path d="M27.606 11.7318L27.7101 11.8026L27.7464 11.7539L27.606 11.7318Z" fill="white"/>
<path d="M27.606 11.7318H27.7328V11.7937L27.606 11.7318Z" fill="white"/>
<path d="M27.8007 11.869L27.7645 11.7495L27.7011 11.7716L27.8007 11.869Z" fill="white"/>
<path d="M27.8007 11.869L27.7011 11.7982L27.7373 11.7451L27.8007 11.869Z" fill="white"/>
<path d="M27.6512 11.869L27.7554 11.7982L27.7192 11.7451L27.6512 11.869Z" fill="white"/>
<path d="M27.6512 11.869L27.692 11.7495L27.7509 11.7716L27.6512 11.869Z" fill="white"/>
<path d="M28.1766 10.8596L28.1359 10.9792L28.1993 11.0013L28.1766 10.8596Z" fill="white"/>
<path d="M28.1766 10.8596L28.2174 10.9792L28.154 11.0013L28.1766 10.8596Z" fill="white"/>
<path d="M28.2989 10.9482H28.1676V11.0102L28.2989 10.9482Z" fill="white"/>
<path d="M28.2989 10.9482L28.1947 11.019L28.1585 10.9703L28.2989 10.9482Z" fill="white"/>
<path d="M28.0543 10.9482L28.1585 11.019L28.1947 10.9703L28.0543 10.9482Z" fill="white"/>
<path d="M28.0543 10.9482H28.1811V11.0102L28.0543 10.9482Z" fill="white"/>
<path d="M28.2491 11.0854L28.2129 10.9659L28.1495 10.988L28.2491 11.0854Z" fill="white"/>
<path d="M28.2491 11.0854L28.1495 11.0146L28.1857 10.9615L28.2491 11.0854Z" fill="white"/>
<path d="M28.0996 11.0854L28.2038 11.0146L28.1675 10.9615L28.0996 11.0854Z" fill="white"/>
<path d="M28.0996 11.0854L28.1404 10.9659L28.1992 10.988L28.0996 11.0854Z" fill="white"/>
<path d="M28.5344 10.6117L28.4846 10.7578L28.5616 10.7844L28.5344 10.6117Z" fill="white"/>
<path d="M28.5344 10.6117L28.5843 10.7578L28.5073 10.7844L28.5344 10.6117Z" fill="white"/>
<path d="M28.6839 10.718H28.5254V10.7977L28.6839 10.718Z" fill="white"/>
<path d="M28.6839 10.718L28.5571 10.8109L28.5118 10.749L28.6839 10.718Z" fill="white"/>
<path d="M28.3849 10.718L28.5118 10.8109L28.557 10.749L28.3849 10.718Z" fill="white"/>
<path d="M28.3849 10.718H28.5435V10.7977L28.3849 10.718Z" fill="white"/>
<path d="M28.6296 10.8906L28.5797 10.7445L28.5027 10.7667L28.6296 10.8906Z" fill="white"/>
<path d="M28.6295 10.8906L28.4982 10.8021L28.548 10.7357L28.6295 10.8906Z" fill="white"/>
<path d="M28.4393 10.8906L28.5707 10.8021L28.5209 10.7357L28.4393 10.8906Z" fill="white"/>
<path d="M28.4393 10.8906L28.4892 10.7445L28.5661 10.7667L28.4393 10.8906Z" fill="white"/>
<path d="M27.7147 10.7755L27.6739 10.8951L27.7373 10.9172L27.7147 10.7755Z" fill="white"/>
<path d="M27.7147 10.7755L27.7554 10.8951L27.692 10.9172L27.7147 10.7755Z" fill="white"/>
<path d="M27.837 10.8641H27.7101V10.926L27.837 10.8641Z" fill="white"/>
<path d="M27.8369 10.8641L27.7328 10.9393L27.6965 10.8862L27.8369 10.8641Z" fill="white"/>
<path d="M27.5924 10.8641L27.6966 10.9393L27.7328 10.8862L27.5924 10.8641Z" fill="white"/>
<path d="M27.5924 10.8641H27.7237V10.926L27.5924 10.8641Z" fill="white"/>
<path d="M27.7917 11.0013L27.7509 10.8862L27.692 10.9039L27.7917 11.0013Z" fill="white"/>
<path d="M27.7917 11.0013L27.6875 10.9305L27.7237 10.8818L27.7917 11.0013Z" fill="white"/>
<path d="M27.6422 11.0013L27.7418 10.9305L27.7056 10.8818L27.6422 11.0013Z" fill="white"/>
<path d="M27.6422 11.0013L27.6784 10.8862L27.7418 10.9039L27.6422 11.0013Z" fill="white"/>
<path d="M23.8017 8.52214L23.7518 8.66823L23.8288 8.6948L23.8017 8.52214Z" fill="white"/>
<path d="M23.8016 8.52214L23.8515 8.66823L23.7745 8.6948L23.8016 8.52214Z" fill="white"/>
<path d="M23.9511 8.62839H23.7926V8.70808L23.9511 8.62839Z" fill="white"/>
<path d="M23.9511 8.62839L23.8243 8.72136L23.7745 8.65938L23.9511 8.62839Z" fill="white"/>
<path d="M23.6476 8.62839L23.779 8.72136L23.8243 8.65938L23.6476 8.62839Z" fill="white"/>
<path d="M23.6476 8.62839H23.8107V8.70808L23.6476 8.62839Z" fill="white"/>
<path d="M23.8922 8.80547L23.847 8.65495L23.77 8.68152L23.8922 8.80547Z" fill="white"/>
<path d="M23.8922 8.80548L23.7654 8.71251L23.8107 8.65053L23.8922 8.80548Z" fill="white"/>
<path d="M23.7065 8.80548L23.8379 8.71251L23.7881 8.65053L23.7065 8.80548Z" fill="white"/>
<path d="M23.7065 8.80547L23.7564 8.65495L23.8334 8.68152L23.7065 8.80547Z" fill="white"/>
<path d="M26.7138 8.15469L26.673 8.27423L26.7364 8.29193L26.7138 8.15469Z" fill="white"/>
<path d="M26.7137 8.15469L26.7545 8.27423L26.6911 8.29193L26.7137 8.15469Z" fill="white"/>
<path d="M26.836 8.24323H26.7092V8.3052L26.836 8.24323Z" fill="white"/>
<path d="M26.8361 8.24323L26.7319 8.31406L26.6957 8.26536L26.8361 8.24323Z" fill="white"/>
<path d="M26.5915 8.24323L26.6957 8.31406L26.7319 8.26536L26.5915 8.24323Z" fill="white"/>
<path d="M26.5915 8.24323H26.7183V8.3052L26.5915 8.24323Z" fill="white"/>
<path d="M26.7862 8.38047L26.75 8.26537L26.6911 8.28307L26.7862 8.38047Z" fill="white"/>
<path d="M26.7862 8.38047L26.6866 8.30964L26.7228 8.25652L26.7862 8.38047Z" fill="white"/>
<path d="M26.6413 8.38047L26.7409 8.30964L26.7047 8.25652L26.6413 8.38047Z" fill="white"/>
<path d="M26.6413 8.38047L26.6775 8.26537L26.7409 8.28307L26.6413 8.38047Z" fill="white"/>
<path d="M25.5 10.2708L25.4411 10.4479L25.5317 10.4789L25.5 10.2708Z" fill="white"/>
<path d="M25.5 10.2708L25.5589 10.4479L25.4683 10.4789L25.5 10.2708Z" fill="white"/>
<path d="M25.6812 10.3992H25.491V10.4922L25.6812 10.3992Z" fill="white"/>
<path d="M25.6812 10.3992L25.5272 10.5099L25.4728 10.4346L25.6812 10.3992Z" fill="white"/>
<path d="M25.3188 10.3992L25.4728 10.5099L25.5272 10.4346L25.3188 10.3992Z" fill="white"/>
<path d="M25.3188 10.3992H25.5091V10.4922L25.3188 10.3992Z" fill="white"/>
<path d="M25.6132 10.6073L25.5543 10.4302L25.4637 10.4612L25.6132 10.6073Z" fill="white"/>
<path d="M25.6132 10.6073L25.4592 10.501L25.5136 10.4214L25.6132 10.6073Z" fill="white"/>
<path d="M25.3868 10.6073L25.5408 10.501L25.4864 10.4214L25.3868 10.6073Z" fill="white"/>
<path d="M25.3868 10.6073L25.4457 10.4302L25.5362 10.4612L25.3868 10.6073Z" fill="white"/>
<path d="M26.0163 9.43411L25.9665 9.58463L26.0435 9.60677L26.0163 9.43411Z" fill="white"/>
<path d="M26.0163 9.43411L26.0661 9.58463L25.9891 9.60677L26.0163 9.43411Z" fill="white"/>
<path d="M26.1658 9.5448H26.0073V9.62006L26.1658 9.5448Z" fill="white"/>
<path d="M26.1658 9.5448L26.039 9.63334L25.9891 9.57136L26.1658 9.5448Z" fill="white"/>
<path d="M25.8668 9.5448L25.9936 9.63334L26.0389 9.57136L25.8668 9.5448Z" fill="white"/>
<path d="M25.8668 9.5448H26.0253V9.62006L25.8668 9.5448Z" fill="white"/>
<path d="M26.1114 9.71744L26.0616 9.57135L25.9846 9.59349L26.1114 9.71744Z" fill="white"/>
<path d="M26.1114 9.71745L25.9801 9.62448L26.0254 9.5625L26.1114 9.71745Z" fill="white"/>
<path d="M25.9212 9.71745L26.0525 9.62448L26.0027 9.5625L25.9212 9.71745Z" fill="white"/>
<path d="M25.9212 9.71744L25.971 9.57135L26.048 9.59349L25.9212 9.71744Z" fill="white"/>
<path d="M25.5 9.04453L25.4502 9.19062L25.5272 9.21718L25.5 9.04453Z" fill="white"/>
<path d="M25.5 9.04453L25.5498 9.19062L25.4728 9.21718L25.5 9.04453Z" fill="white"/>
<path d="M25.6495 9.15079H25.491V9.23047L25.6495 9.15079Z" fill="white"/>
<path d="M25.6495 9.15079L25.5226 9.24376L25.4774 9.18178L25.6495 9.15079Z" fill="white"/>
<path d="M25.3505 9.15079L25.4773 9.24376L25.5226 9.18178L25.3505 9.15079Z" fill="white"/>
<path d="M25.3505 9.15079H25.509V9.23047L25.3505 9.15079Z" fill="white"/>
<path d="M25.5951 9.32786L25.5453 9.17734L25.4683 9.2039L25.5951 9.32786Z" fill="white"/>
<path d="M25.5951 9.32786L25.4637 9.23489L25.5136 9.17291L25.5951 9.32786Z" fill="white"/>
<path d="M25.4049 9.32786L25.5362 9.23489L25.4864 9.17291L25.4049 9.32786Z" fill="white"/>
<path d="M25.4049 9.32786L25.4547 9.17734L25.5317 9.2039L25.4049 9.32786Z" fill="white"/>
<path d="M25.0516 9.4651L25.0109 9.58463L25.0743 9.60677L25.0516 9.4651Z" fill="white"/>
<path d="M25.0516 9.4651L25.0924 9.58463L25.029 9.60677L25.0516 9.4651Z" fill="white"/>
<path d="M25.1739 9.55365H25.0426V9.61563L25.1739 9.55365Z" fill="white"/>
<path d="M25.1739 9.55365L25.0698 9.62448L25.029 9.57578L25.1739 9.55365Z" fill="white"/>
<path d="M24.9293 9.55365L25.0335 9.62448L25.0697 9.57578L24.9293 9.55365Z" fill="white"/>
<path d="M24.9293 9.55365H25.0561V9.61563L24.9293 9.55365Z" fill="white"/>
<path d="M25.1241 9.69088L25.0879 9.57578L25.0245 9.59348L25.1241 9.69088Z" fill="white"/>
<path d="M25.1241 9.69088L25.0245 9.62005L25.0607 9.56693L25.1241 9.69088Z" fill="white"/>
<path d="M24.9746 9.69088L25.0788 9.62005L25.0425 9.56693L24.9746 9.69088Z" fill="white"/>
<path d="M24.9746 9.69088L25.0154 9.57578L25.0742 9.59348L24.9746 9.69088Z" fill="white"/>
<path d="M25.2736 9.80598L25.2464 9.8901L25.2917 9.90338L25.2736 9.80598Z" fill="white"/>
<path d="M25.2735 9.80598L25.3052 9.8901L25.2599 9.90338L25.2735 9.80598Z" fill="white"/>
<path d="M25.3596 9.86797H25.269V9.91224L25.3596 9.86797Z" fill="white"/>
<path d="M25.3596 9.86797L25.2871 9.91666L25.2599 9.88125L25.3596 9.86797Z" fill="white"/>
<path d="M25.1875 9.86797L25.2645 9.91666L25.2871 9.88125L25.1875 9.86797Z" fill="white"/>
<path d="M25.1875 9.86797H25.2781V9.91224L25.1875 9.86797Z" fill="white"/>
<path d="M25.3279 9.96537L25.3007 9.88126L25.2554 9.89454L25.3279 9.96537Z" fill="white"/>
<path d="M25.3279 9.96537L25.2554 9.91225L25.2826 9.87683L25.3279 9.96537Z" fill="white"/>
<path d="M25.2238 9.96537L25.2962 9.91225L25.269 9.87683L25.2238 9.96537Z" fill="white"/>
<path d="M25.2238 9.96537L25.2509 9.88126L25.2917 9.89454L25.2238 9.96537Z" fill="white"/>
<path d="M26.8361 11.2802L26.7863 11.4307L26.8632 11.4529L26.8361 11.2802Z" fill="white"/>
<path d="M26.8361 11.2802L26.8859 11.4307L26.8089 11.4529L26.8361 11.2802Z" fill="white"/>
<path d="M26.9855 11.3865H26.827V11.4661L26.9855 11.3865Z" fill="white"/>
<path d="M26.9855 11.3865L26.8587 11.4794L26.8089 11.4174L26.9855 11.3865Z" fill="white"/>
<path d="M26.6821 11.3865L26.8134 11.4794L26.8587 11.4174L26.6821 11.3865Z" fill="white"/>
<path d="M26.6821 11.3865H26.8451V11.4661L26.6821 11.3865Z" fill="white"/>
<path d="M26.9266 11.5635L26.8813 11.413L26.8043 11.4396L26.9266 11.5635Z" fill="white"/>
<path d="M26.9266 11.5635L26.7998 11.4706L26.8451 11.4086L26.9266 11.5635Z" fill="white"/>
<path d="M26.741 11.5635L26.8723 11.4706L26.8225 11.4086L26.741 11.5635Z" fill="white"/>
<path d="M26.741 11.5635L26.7908 11.413L26.8678 11.4396L26.741 11.5635Z" fill="white"/>
<path d="M27.2165 10.926L27.1757 11.0456L27.2391 11.0633L27.2165 10.926Z" fill="white"/>
<path d="M27.2165 10.926L27.2572 11.0456L27.1984 11.0633L27.2165 10.926Z" fill="white"/>
<path d="M27.3388 11.0102H27.212V11.0766L27.3388 11.0102Z" fill="white"/>
<path d="M27.3388 11.0102L27.2346 11.0854L27.1984 11.0367L27.3388 11.0102Z" fill="white"/>
<path d="M27.0942 11.0102L27.1983 11.0854L27.2391 11.0367L27.0942 11.0102Z" fill="white"/>
<path d="M27.0942 11.0102H27.2255V11.0766L27.0942 11.0102Z" fill="white"/>
<path d="M27.2935 11.1518L27.2527 11.0323L27.1938 11.0544L27.2935 11.1518Z" fill="white"/>
<path d="M27.2935 11.1518L27.1893 11.081L27.2256 11.0279L27.2935 11.1518Z" fill="white"/>
<path d="M27.144 11.1518L27.2437 11.081L27.2074 11.0279L27.144 11.1518Z" fill="white"/>
<path d="M27.144 11.1518L27.1803 11.0323L27.2437 11.0544L27.144 11.1518Z" fill="white"/>
<path d="M26.4828 10.8198L26.442 10.9393L26.5054 10.957L26.4828 10.8198Z" fill="white"/>
<path d="M26.4828 10.8198L26.5236 10.9393L26.4601 10.957L26.4828 10.8198Z" fill="white"/>
<path d="M26.6051 10.9083H26.4783V10.9659L26.6051 10.9083Z" fill="white"/>
<path d="M26.6051 10.9083L26.5009 10.9792L26.4647 10.926L26.6051 10.9083Z" fill="white"/>
<path d="M26.3605 10.9083L26.4647 10.9792L26.5009 10.926L26.3605 10.9083Z" fill="white"/>
<path d="M26.3605 10.9083H26.4873V10.9659L26.3605 10.9083Z" fill="white"/>
<path d="M26.5553 11.0456L26.519 10.926L26.4556 10.9482L26.5553 11.0456Z" fill="white"/>
<path d="M26.5553 11.0456L26.4556 10.9703L26.4919 10.9216L26.5553 11.0456Z" fill="white"/>
<path d="M26.4103 11.0456L26.51 10.9703L26.4737 10.9216L26.4103 11.0456Z" fill="white"/>
<path d="M26.4103 11.0456L26.4466 10.926L26.5054 10.9482L26.4103 11.0456Z" fill="white"/>
<path d="M23.711 10.625L23.6522 10.8065L23.7427 10.8331L23.711 10.625Z" fill="white"/>
<path d="M23.711 10.625L23.7699 10.8065L23.6793 10.8331L23.711 10.625Z" fill="white"/>
<path d="M23.8922 10.7578H23.702V10.8508L23.8922 10.7578Z" fill="white"/>
<path d="M23.8922 10.7578L23.7382 10.8641L23.6793 10.7888L23.8922 10.7578Z" fill="white"/>
<path d="M23.5299 10.7578L23.6839 10.8641L23.7382 10.7888L23.5299 10.7578Z" fill="white"/>
<path d="M23.5299 10.7578H23.7201V10.8508L23.5299 10.7578Z" fill="white"/>
<path d="M23.8243 10.9659L23.7609 10.7844L23.6703 10.8154L23.8243 10.9659Z" fill="white"/>
<path d="M23.8243 10.9659L23.6658 10.8552L23.7246 10.78L23.8243 10.9659Z" fill="white"/>
<path d="M23.5978 10.9659L23.7518 10.8552L23.6975 10.78L23.5978 10.9659Z" fill="white"/>
<path d="M23.5978 10.9659L23.6567 10.7844L23.7473 10.8154L23.5978 10.9659Z" fill="white"/>
<path d="M25.5 11.8469L25.4819 11.9089L25.509 11.9177L25.5 11.8469Z" fill="white"/>
<path d="M25.5 11.8469L25.5181 11.9089L25.491 11.9177L25.5 11.8469Z" fill="white"/>
<path d="M25.5589 11.8911H25.4955V11.9221L25.5589 11.8911Z" fill="white"/>
<path d="M25.5589 11.8911L25.5091 11.9266L25.491 11.9044L25.5589 11.8911Z" fill="white"/>
<path d="M25.4411 11.8911L25.4909 11.9266L25.509 11.9044L25.4411 11.8911Z" fill="white"/>
<path d="M25.4411 11.8911H25.5045V11.9221L25.4411 11.8911Z" fill="white"/>
<path d="M25.5362 11.962L25.5181 11.9044L25.4864 11.9133L25.5362 11.962Z" fill="white"/>
<path d="M25.5362 11.962L25.4864 11.9266L25.5045 11.9L25.5362 11.962Z" fill="white"/>
<path d="M25.4637 11.962L25.5136 11.9266L25.4954 11.9L25.4637 11.962Z" fill="white"/>
<path d="M25.4637 11.962L25.4819 11.9044L25.5136 11.9133L25.4637 11.962Z" fill="white"/>
</svg>
